<svg xmlns="http://www.w3.org/2000/svg" width="33" height="34" fill="none"><path fill="#B8F412" d="M.805.129h21.352l10.647 16.876h-32V.129z"/><path fill="#B8F412" d="M32.805 33.879H11.452L.805 17.003h32V33.88z"/><path fill="#000" d="M13.93 15.546H4.556l2.547-11.25h9.21c2.902 0 4.819.758 4.381 2.817l-.032.151c-.307 1.363-1.38 2.075-3.372 2.256v.06c2.014.243 3.074 1.242 2.734 2.847l-.033.152c-.562 2.392-3.054 2.967-6.06 2.967zm-2.377-8.251-.338 1.499h3.05c.838 0 1.275-.228 1.371-.621l.032-.121c.113-.515-.197-.757-.96-.757h-3.155zm-.806 3.558-.401 1.695h3.095c.912 0 1.41-.242 1.507-.696l.032-.152c.13-.59-.27-.847-1.257-.847h-2.976zm8.889 18.65h-5.292l2.56-11.25h12.36l-.73 3.18h-7.066l-.341 1.53h6.315l-.648 2.8H20.48l-.843 3.74z"/></svg>