<svg width="9" height="10" viewBox="0 0 9 10" fill="none" xmlns="http://www.w3.org/2000/svg">
<circle cx="4.3146" cy="4.68686" r="2.41232" fill="white"/>
<path fill-rule="evenodd" clip-rule="evenodd" d="M3.42153 1.9328C3.3376 2.00432 3.29564 2.04008 3.25082 2.07012C3.14809 2.13897 3.03272 2.18676 2.91139 2.21072C2.85846 2.22117 2.8035 2.22555 2.69358 2.23432C2.41741 2.25636 2.27933 2.26738 2.16412 2.30807C1.89767 2.40219 1.68808 2.61178 1.59396 2.87823C1.55327 2.99344 1.54225 3.13152 1.52021 3.40769C1.51144 3.51761 1.50705 3.57257 1.4966 3.6255C1.47265 3.74683 1.42486 3.8622 1.35601 3.96493C1.32597 4.00975 1.29021 4.05171 1.21869 4.13564C1.03899 4.3465 0.94914 4.45194 0.896452 4.56217C0.774588 4.81713 0.774588 5.11354 0.896452 5.3685C0.94914 5.47874 1.03899 5.58417 1.21869 5.79503C1.2902 5.87895 1.32597 5.92092 1.35601 5.96574C1.42486 6.06847 1.47265 6.18384 1.4966 6.30517C1.50705 6.3581 1.51144 6.41306 1.52021 6.52298C1.54225 6.79915 1.55327 6.93723 1.59396 7.05244C1.68808 7.31889 1.89767 7.52848 2.16412 7.6226C2.27933 7.66329 2.41741 7.67431 2.69358 7.69635C2.8035 7.70512 2.85846 7.70951 2.91139 7.71996C3.03272 7.74391 3.14809 7.7917 3.25082 7.86055C3.29564 7.89059 3.3376 7.92635 3.42153 7.99787C3.63239 8.17757 3.73782 8.26742 3.84806 8.32011C4.10302 8.44197 4.39943 8.44197 4.65439 8.32011C4.76462 8.26742 4.87006 8.17757 5.08092 7.99787C5.16485 7.92635 5.20681 7.89059 5.25163 7.86055C5.35436 7.7917 5.46973 7.74391 5.59106 7.71996C5.64399 7.70951 5.69895 7.70512 5.80887 7.69635C6.08504 7.67431 6.22312 7.66329 6.33833 7.6226C6.60478 7.52848 6.81437 7.31889 6.90849 7.05244C6.94918 6.93723 6.9602 6.79915 6.98224 6.52298C6.99101 6.41306 6.9954 6.3581 7.00584 6.30517C7.0298 6.18384 7.07759 6.06847 7.14644 5.96574C7.17648 5.92092 7.21224 5.87896 7.28376 5.79503C7.46346 5.58417 7.55331 5.47874 7.606 5.3685C7.72786 5.11354 7.72786 4.81713 7.606 4.56217C7.55331 4.45194 7.46346 4.3465 7.28376 4.13564C7.21224 4.05171 7.17648 4.00975 7.14644 3.96493C7.07759 3.8622 7.0298 3.74683 7.00584 3.6255C6.9954 3.57257 6.99101 3.51761 6.98224 3.40769C6.9602 3.13152 6.94918 2.99344 6.90849 2.87823C6.81437 2.61178 6.60478 2.40219 6.33833 2.30807C6.22312 2.26738 6.08504 2.25636 5.80887 2.23432C5.69895 2.22555 5.64399 2.22117 5.59106 2.21072C5.46973 2.18676 5.35436 2.13897 5.25163 2.07012C5.20681 2.04008 5.16485 2.00432 5.08092 1.9328C4.87006 1.7531 4.76462 1.66325 4.65439 1.61056C4.39943 1.4887 4.10302 1.4887 3.84806 1.61056C3.73782 1.66325 3.63239 1.7531 3.42153 1.9328ZM5.7584 4.22894C5.86793 4.11941 5.86793 3.94182 5.7584 3.83229C5.64887 3.72276 5.47129 3.72276 5.36176 3.83229L3.69028 5.50377L3.14068 4.95417C3.03115 4.84464 2.85357 4.84464 2.74404 4.95417C2.63451 5.0637 2.63451 5.24129 2.74404 5.35082L3.49196 6.09874C3.60149 6.20827 3.77907 6.20827 3.8886 6.09874L5.7584 4.22894Z" fill="#1C8DFF"/>
</svg>
