<svg width="27" height="28" viewBox="0 0 27 28" fill="none" xmlns="http://www.w3.org/2000/svg">
<path fill-rule="evenodd" clip-rule="evenodd" d="M13.4289 1.841C10.4932 1.841 8.11332 4.22089 8.11332 7.15663C8.11332 10.0924 10.4932 12.4723 13.4289 12.4723C16.3647 12.4723 18.7446 10.0924 18.7446 7.15663C18.7446 4.22089 16.3647 1.841 13.4289 1.841ZM9.79194 7.15663C9.79194 5.14796 11.4203 3.51962 13.4289 3.51962C15.4376 3.51962 17.066 5.14796 17.066 7.15663C17.066 9.16529 15.4376 10.7936 13.4289 10.7936C11.4203 10.7936 9.79194 9.16529 9.79194 7.15663Z" fill="#DDFF70"/>
<path fill-rule="evenodd" clip-rule="evenodd" d="M3.05241 6.95307C2.93998 6.50337 2.48429 6.22995 2.0346 6.34238C1.5849 6.4548 1.31148 6.91049 1.42391 7.36019L1.85136 9.06999C2.64004 12.2247 5.03122 14.71 8.11332 15.6378L8.11332 20.6438C8.11329 21.6492 8.11326 22.4877 8.20275 23.1533C8.29721 23.8558 8.50498 24.4901 9.01469 24.9998C9.5244 25.5095 10.1587 25.7173 10.8612 25.8118C11.5269 25.9013 12.3653 25.9012 13.3708 25.9012H13.4871C14.4926 25.9012 15.331 25.9013 15.9966 25.8118C16.6992 25.7173 17.3335 25.5095 17.8432 24.9998C18.3529 24.4901 18.5607 23.8558 18.6551 23.1533C18.7446 22.4877 18.7446 21.6493 18.7446 20.6438L18.7446 15.9515C19.8425 16.2788 20.6812 17.2327 20.8212 18.4225L21.548 24.6004C21.6022 25.0608 22.0193 25.3901 22.4796 25.3359C22.94 25.2818 23.2693 24.8646 23.2151 24.4043L22.4883 18.2264C22.2149 15.9023 20.2453 14.1509 17.9053 14.1509H9.04722C6.31281 13.509 4.16229 11.3926 3.47986 8.66287L3.05241 6.95307ZM9.79194 20.5856V15.8295H17.066V20.5856C17.066 21.6644 17.0642 22.3891 16.9915 22.9296C16.9221 23.446 16.8021 23.667 16.6562 23.8129C16.5104 23.9587 16.2894 24.0787 15.773 24.1481C15.2324 24.2208 14.5078 24.2226 13.4289 24.2226C12.3501 24.2226 11.6255 24.2208 11.0849 24.1481C10.5685 24.0787 10.3475 23.9587 10.2017 23.8129C10.0558 23.667 9.93583 23.446 9.8664 22.9296C9.79372 22.3891 9.79194 21.6644 9.79194 20.5856Z" fill="#DDFF70"/>
</svg>
