<svg width="27" height="28" viewBox="0 0 27 28" fill="none" xmlns="http://www.w3.org/2000/svg">
<path fill-rule="evenodd" clip-rule="evenodd" d="M11.8351 1.841H15.2805C17.0748 1.841 18.4814 1.84099 19.6052 1.94784C20.7506 2.05675 21.6885 2.28256 22.5153 2.78922C23.3812 3.3198 24.1091 4.04776 24.6397 4.91358C25.1464 5.74038 25.3722 6.67829 25.4811 7.82372C25.5879 8.94748 25.5879 10.3541 25.5879 12.1484V13.3427C25.5879 14.6199 25.5879 15.6213 25.5327 16.4302C25.4766 17.2533 25.3605 17.9383 25.0981 18.5717C24.445 20.1484 23.1923 21.4011 21.6157 22.0541C20.7148 22.4273 19.6888 22.5101 18.284 22.5343C17.7926 22.5427 17.4814 22.5489 17.2441 22.5752C17.0224 22.5998 16.9365 22.6358 16.8862 22.665C16.8332 22.6959 16.7609 22.7521 16.6354 22.9243C16.4996 23.1106 16.3461 23.3681 16.1028 23.7793L15.4961 24.8042C14.6304 26.2667 12.4851 26.2667 11.6194 24.8042L11.0128 23.7793C10.7695 23.3681 10.616 23.1106 10.4802 22.9243C10.3547 22.7521 10.2824 22.6959 10.2294 22.665C10.1791 22.6358 10.0931 22.5998 9.87143 22.5752C9.63417 22.5489 9.32294 22.5427 8.83155 22.5343C7.4268 22.5101 6.40079 22.4273 5.49996 22.0541C3.92328 21.4011 2.67061 20.1484 2.01752 18.5717C1.75514 17.9383 1.63905 17.2533 1.5829 16.4302C1.5277 15.6213 1.52771 14.6199 1.52771 13.3427L1.52771 12.1484C1.5277 10.3541 1.5277 8.94748 1.63455 7.82372C1.74345 6.67829 1.96926 5.74038 2.47593 4.91358C3.00651 4.04776 3.73447 3.3198 4.60029 2.78922C5.42709 2.28256 6.36499 2.05675 7.51043 1.94784C8.63419 1.84099 10.0408 1.841 11.8351 1.841ZM7.66931 3.61892C6.64675 3.71615 5.99609 3.9026 5.47737 4.22048C4.83741 4.61264 4.29935 5.1507 3.90718 5.79066C3.58931 6.30938 3.40285 6.96005 3.30563 7.98261C3.20721 9.01766 3.20633 10.3446 3.20633 12.1925V13.3116C3.20633 14.6266 3.20678 15.5709 3.25762 16.316C3.30795 17.0536 3.40482 17.5345 3.56836 17.9293C4.05108 19.0947 4.97696 20.0206 6.14234 20.5033C6.71938 20.7423 7.45554 20.8317 8.86047 20.8559L8.89608 20.8565C9.34147 20.8642 9.73178 20.8709 10.0562 20.9068C10.4048 20.9454 10.7457 21.0234 11.0733 21.214C11.3982 21.4029 11.6325 21.6553 11.8367 21.9356C12.0255 22.1945 12.2194 22.5223 12.4391 22.8935L13.064 23.9492C13.2797 24.3136 13.8359 24.3136 14.0516 23.9492L14.6764 22.8935C14.8961 22.5223 15.0901 22.1945 15.2788 21.9356C15.4831 21.6553 15.7174 21.4029 16.0423 21.214C16.3699 21.0234 16.7108 20.9454 17.0594 20.9068C17.3838 20.8709 17.7741 20.8642 18.2195 20.8565L18.2551 20.8559C19.6601 20.8317 20.3962 20.7423 20.9733 20.5033C22.1387 20.0206 23.0645 19.0947 23.5473 17.9293C23.7108 17.5345 23.8077 17.0536 23.858 16.316C23.9088 15.5709 23.9093 14.6266 23.9093 13.3116V12.1925C23.9093 10.3446 23.9084 9.01766 23.81 7.98261C23.7128 6.96005 23.5263 6.30938 23.2084 5.79066C22.8163 5.1507 22.2782 4.61264 21.6383 4.22048C21.1195 3.9026 20.4689 3.71615 19.4463 3.61892C18.4113 3.52051 17.0843 3.51962 15.2364 3.51962H11.8792C10.0313 3.51962 8.70436 3.52051 7.66931 3.61892ZM15.2231 6.34592C15.6708 6.46589 15.9365 6.92611 15.8165 7.37386L12.9202 18.1833C12.8002 18.6311 12.34 18.8968 11.8922 18.7768C11.4445 18.6568 11.1788 18.1966 11.2987 17.7489L14.1951 6.9394C14.3151 6.49166 14.7753 6.22595 15.2231 6.34592ZM10.2345 8.6106C10.5623 8.93837 10.5623 9.46979 10.2345 9.79756L10.0425 9.98957C9.27968 10.7524 8.76852 11.2661 8.43768 11.6997C8.12162 12.114 8.05018 12.3551 8.05018 12.5613C8.05018 12.7676 8.12162 13.0087 8.43768 13.4229C8.76852 13.8566 9.27968 14.3702 10.0425 15.1331L10.2345 15.3251C10.5623 15.6528 10.5623 16.1843 10.2345 16.512C9.90674 16.8398 9.37532 16.8398 9.04755 16.512L8.81442 16.2789C8.10341 15.5679 7.51052 14.9751 7.10314 14.4412C6.67315 13.8776 6.37156 13.2822 6.37156 12.5613C6.37156 11.8405 6.67315 11.245 7.10314 10.6815C7.51052 10.1476 8.10339 9.55471 8.81438 8.84377L9.04755 8.6106C9.37532 8.28283 9.90674 8.28283 10.2345 8.6106ZM16.8811 8.6106C17.2089 8.28283 17.7403 8.28283 18.0681 8.6106L18.3012 8.84374C19.0122 9.55469 19.6051 10.1475 20.0125 10.6815C20.4425 11.245 20.7441 11.8405 20.7441 12.5613C20.7441 13.2822 20.4425 13.8776 20.0125 14.4412C19.6051 14.9751 19.0122 15.568 18.3012 16.2789L18.0681 16.512C17.7403 16.8398 17.2089 16.8398 16.8811 16.512C16.5533 16.1843 16.5533 15.6528 16.8811 15.3251L17.0731 15.1331C17.8359 14.3702 18.3471 13.8566 18.6779 13.4229C18.994 13.0087 19.0654 12.7676 19.0654 12.5613C19.0654 12.3551 18.994 12.114 18.6779 11.6997C18.3471 11.2661 17.8359 10.7524 17.0731 9.98957L16.8811 9.79756C16.5533 9.46979 16.5533 8.93837 16.8811 8.6106Z" fill="#DDFF70"/>
</svg>
