<svg width="28" height="28" viewBox="0 0 28 28" fill="none" xmlns="http://www.w3.org/2000/svg">
<path fill-rule="evenodd" clip-rule="evenodd" d="M13.9645 9.6745C11.6468 9.6745 9.76794 11.5534 9.76794 13.871C9.76794 16.1887 11.6468 18.0676 13.9645 18.0676C16.2822 18.0676 18.161 16.1887 18.161 13.871C18.161 11.5534 16.2822 9.6745 13.9645 9.6745ZM11.4466 13.871C11.4466 12.4804 12.5739 11.3531 13.9645 11.3531C15.3551 11.3531 16.4824 12.4804 16.4824 13.871C16.4824 15.2617 15.3551 16.389 13.9645 16.389C12.5739 16.389 11.4466 15.2617 11.4466 13.871Z" fill="#DDFF70"/>
<path fill-rule="evenodd" clip-rule="evenodd" d="M13.9645 4.0791C8.91282 4.0791 5.51017 7.10531 3.5353 9.67099L3.49969 9.71725C3.05306 10.2973 2.64171 10.8315 2.36264 11.4632C2.0638 12.1397 1.93439 12.877 1.93439 13.871C1.93439 14.8651 2.0638 15.6024 2.36264 16.2789C2.64171 16.9106 3.05306 17.4448 3.4997 18.0248L3.53531 18.0711C5.51017 20.6368 8.91282 23.663 13.9645 23.663C19.0162 23.663 22.4188 20.6368 24.3937 18.0711L24.4293 18.0249C24.8759 17.4448 25.2873 16.9106 25.5663 16.2789C25.8652 15.6024 25.9946 14.8651 25.9946 13.871C25.9946 12.877 25.8652 12.1397 25.5663 11.4632C25.2873 10.8315 24.8759 10.2973 24.4293 9.71722L24.3937 9.67099C22.4188 7.10531 19.0162 4.0791 13.9645 4.0791ZM4.8655 10.6949C6.68895 8.32592 9.65643 5.75772 13.9645 5.75772C18.2725 5.75772 21.24 8.32592 23.0635 10.6949C23.5543 11.3325 23.8418 11.7135 24.0309 12.1416C24.2076 12.5416 24.316 13.0305 24.316 13.871C24.316 14.7115 24.2076 15.2005 24.0309 15.6005C23.8418 16.0286 23.5543 16.4096 23.0635 17.0472C21.24 19.4162 18.2725 21.9844 13.9645 21.9844C9.65643 21.9844 6.68895 19.4162 4.8655 17.0472C4.37469 16.4096 4.0872 16.0286 3.8981 15.6005C3.72137 15.2005 3.61301 14.7115 3.61301 13.871C3.61301 13.0305 3.72137 12.5416 3.8981 12.1416C4.0872 11.7135 4.37469 11.3325 4.8655 10.6949Z" fill="#DDFF70"/>
</svg>
